<?xml version="1.0" encoding="UTF-8" standalone="no"?>
<!DOCTYPE svg PUBLIC "-//W3C//DTD SVG 1.1//EN"
 "http://www.w3.org/Graphics/SVG/1.1/DTD/svg11.dtd">
<!-- Generated by graphviz version 2.47.0 (20210316.0004)
 -->
<!-- Title: dependencies Pages: 1 -->
<svg width="1851pt" height="284pt"
 viewBox="0.00 0.00 1851.00 284.00" xmlns="http://www.w3.org/2000/svg" xmlns:xlink="http://www.w3.org/1999/xlink">
<g id="graph0" class="graph" transform="scale(1 1) rotate(0) translate(4 280)">
<title>dependencies</title>
<polygon fill="white" stroke="transparent" points="-4,4 -4,-280 1847,-280 1847,4 -4,4"/>
<text text-anchor="start" x="900.51" y="-42.4" font-family="Times-12" font-weight="bold" font-size="14.00">Legend</text>
<polygon fill="#ffffb3" stroke="transparent" points="687.5,-10 687.5,-30 707.5,-30 707.5,-10 687.5,-10"/>
<text text-anchor="start" x="711.13" y="-15.4" font-family="Times-12" font-size="14.00"> &#160;Declarations</text>
<polygon fill="#8dd3c7" stroke="transparent" points="800.5,-10 800.5,-30 820.5,-30 820.5,-10 800.5,-10"/>
<text text-anchor="start" x="824.23" y="-15.4" font-family="Times-12" font-size="14.00"> &#160;Module</text>
<polygon fill="#80b1d3" stroke="transparent" points="886.5,-10 886.5,-30 906.5,-30 906.5,-10 886.5,-10"/>
<text text-anchor="start" x="910.28" y="-15.4" font-family="Times-12" font-size="14.00"> &#160;Bootstrap</text>
<polygon fill="#fdb462" stroke="transparent" points="983.5,-10 983.5,-30 1003.5,-30 1003.5,-10 983.5,-10"/>
<text text-anchor="start" x="1007.17" y="-15.4" font-family="Times-12" font-size="14.00"> &#160;Providers</text>
<polygon fill="#fb8072" stroke="transparent" points="1079.5,-10 1079.5,-30 1099.5,-30 1099.5,-10 1079.5,-10"/>
<text text-anchor="start" x="1103.23" y="-15.4" font-family="Times-12" font-size="14.00"> &#160;Exports</text>
<g id="clust1" class="cluster">
<title>cluster_AppModule</title>
<polygon fill="none" stroke="black" stroke-dasharray="1,5" points="8,-70 8,-268 1835,-268 1835,-70 8,-70"/>
</g>
<g id="clust2" class="cluster">
<title>cluster_AppModule_declarations</title>
<polygon fill="none" stroke="black" points="168,-78 168,-130 1827,-130 1827,-78 168,-78"/>
</g>
<g id="clust13" class="cluster">
<title>cluster_AppModule_imports</title>
<polygon fill="none" stroke="black" points="16,-78 16,-130 160,-130 160,-78 16,-78"/>
</g>
<g id="clust15" class="cluster">
<title>cluster_AppModule_bootstrap</title>
<polygon fill="none" stroke="black" points="947,-208 947,-260 1071,-260 1071,-208 947,-208"/>
</g>
<!-- AppComponent -->
<g id="node1" class="node">
<title>AppComponent</title>
<polygon fill="#ffffb3" stroke="black" points="1818.94,-122 1713.06,-122 1713.06,-86 1818.94,-86 1818.94,-122"/>
<text text-anchor="middle" x="1766" y="-99.8" font-family="Times,serif" font-size="14.00">AppComponent</text>
</g>
<!-- AppModule -->
<g id="node11" class="node">
<title>AppModule</title>
<polygon fill="#8dd3c7" stroke="black" points="1050.66,-187 1047.66,-191 1026.66,-191 1023.66,-187 967.34,-187 967.34,-151 1050.66,-151 1050.66,-187"/>
<text text-anchor="middle" x="1009" y="-164.8" font-family="Times,serif" font-size="14.00">AppModule</text>
</g>
<!-- AppComponent&#45;&gt;AppModule -->
<g id="edge1" class="edge">
<title>AppComponent&#45;&gt;AppModule</title>
<path fill="none" stroke="black" d="M1766,-122.25C1766,-145.02 1766,-181 1766,-181 1766,-181 1060.78,-181 1060.78,-181"/>
<polygon fill="black" stroke="black" points="1060.78,-177.5 1050.78,-181 1060.78,-184.5 1060.78,-177.5"/>
</g>
<!-- BillingComponent -->
<g id="node2" class="node">
<title>BillingComponent</title>
<polygon fill="#ffffb3" stroke="black" points="1695.23,-122 1574.77,-122 1574.77,-86 1695.23,-86 1695.23,-122"/>
<text text-anchor="middle" x="1635" y="-99.8" font-family="Times,serif" font-size="14.00">BillingComponent</text>
</g>
<!-- BillingComponent&#45;&gt;AppModule -->
<g id="edge2" class="edge">
<title>BillingComponent&#45;&gt;AppModule</title>
<path fill="none" stroke="black" d="M1635,-122.28C1635,-143.32 1635,-175 1635,-175 1635,-175 1061.05,-175 1061.05,-175"/>
<polygon fill="black" stroke="black" points="1061.05,-171.5 1051.05,-175 1061.05,-178.5 1061.05,-171.5"/>
</g>
<!-- ConfigurationComponent -->
<g id="node3" class="node">
<title>ConfigurationComponent</title>
<polygon fill="#ffffb3" stroke="black" points="1556.88,-122 1397.12,-122 1397.12,-86 1556.88,-86 1556.88,-122"/>
<text text-anchor="middle" x="1477" y="-99.8" font-family="Times,serif" font-size="14.00">ConfigurationComponent</text>
</g>
<!-- ConfigurationComponent&#45;&gt;AppModule -->
<g id="edge3" class="edge">
<title>ConfigurationComponent&#45;&gt;AppModule</title>
<path fill="none" stroke="black" d="M1477,-122.11C1477,-141.34 1477,-169 1477,-169 1477,-169 1060.94,-169 1060.94,-169"/>
<polygon fill="black" stroke="black" points="1060.94,-165.5 1050.94,-169 1060.94,-172.5 1060.94,-165.5"/>
</g>
<!-- LocationComponent -->
<g id="node4" class="node">
<title>LocationComponent</title>
<polygon fill="#ffffb3" stroke="black" points="1379.6,-122 1248.4,-122 1248.4,-86 1379.6,-86 1379.6,-122"/>
<text text-anchor="middle" x="1314" y="-99.8" font-family="Times,serif" font-size="14.00">LocationComponent</text>
</g>
<!-- LocationComponent&#45;&gt;AppModule -->
<g id="edge4" class="edge">
<title>LocationComponent&#45;&gt;AppModule</title>
<path fill="none" stroke="black" d="M1314,-122.02C1314,-139.37 1314,-163 1314,-163 1314,-163 1060.77,-163 1060.77,-163"/>
<polygon fill="black" stroke="black" points="1060.77,-159.5 1050.77,-163 1060.77,-166.5 1060.77,-159.5"/>
</g>
<!-- LoginPageComponent -->
<g id="node5" class="node">
<title>LoginPageComponent</title>
<polygon fill="#ffffb3" stroke="black" points="1229.99,-122 1088.01,-122 1088.01,-86 1229.99,-86 1229.99,-122"/>
<text text-anchor="middle" x="1159" y="-99.8" font-family="Times,serif" font-size="14.00">LoginPageComponent</text>
</g>
<!-- LoginPageComponent&#45;&gt;AppModule -->
<g id="edge5" class="edge">
<title>LoginPageComponent&#45;&gt;AppModule</title>
<path fill="none" stroke="black" d="M1159,-122.24C1159,-137.57 1159,-157 1159,-157 1159,-157 1060.78,-157 1060.78,-157"/>
<polygon fill="black" stroke="black" points="1060.78,-153.5 1050.78,-157 1060.78,-160.5 1060.78,-153.5"/>
</g>
<!-- NavbarComponent -->
<g id="node6" class="node">
<title>NavbarComponent</title>
<polygon fill="#ffffb3" stroke="black" points="1070.03,-122 947.97,-122 947.97,-86 1070.03,-86 1070.03,-122"/>
<text text-anchor="middle" x="1009" y="-99.8" font-family="Times,serif" font-size="14.00">NavbarComponent</text>
</g>
<!-- NavbarComponent&#45;&gt;AppModule -->
<g id="edge6" class="edge">
<title>NavbarComponent&#45;&gt;AppModule</title>
<path fill="none" stroke="black" d="M1009,-122.11C1009,-122.11 1009,-140.99 1009,-140.99"/>
<polygon fill="black" stroke="black" points="1005.5,-140.99 1009,-150.99 1012.5,-140.99 1005.5,-140.99"/>
</g>
<!-- ProductDetailsDialogComponent -->
<g id="node7" class="node">
<title>ProductDetailsDialogComponent</title>
<polygon fill="#ffffb3" stroke="black" points="929.14,-122 726.86,-122 726.86,-86 929.14,-86 929.14,-122"/>
<text text-anchor="middle" x="828" y="-99.8" font-family="Times,serif" font-size="14.00">ProductDetailsDialogComponent</text>
</g>
<!-- ProductDetailsDialogComponent&#45;&gt;AppModule -->
<g id="edge7" class="edge">
<title>ProductDetailsDialogComponent&#45;&gt;AppModule</title>
<path fill="none" stroke="black" d="M828,-122.24C828,-137.57 828,-157 828,-157 828,-157 957.02,-157 957.02,-157"/>
<polygon fill="black" stroke="black" points="957.02,-160.5 967.02,-157 957.02,-153.5 957.02,-160.5"/>
</g>
<!-- ProductSelectionComponent -->
<g id="node8" class="node">
<title>ProductSelectionComponent</title>
<polygon fill="#ffffb3" stroke="black" points="708.48,-122 531.52,-122 531.52,-86 708.48,-86 708.48,-122"/>
<text text-anchor="middle" x="620" y="-99.8" font-family="Times,serif" font-size="14.00">ProductSelectionComponent</text>
</g>
<!-- ProductSelectionComponent&#45;&gt;AppModule -->
<g id="edge8" class="edge">
<title>ProductSelectionComponent&#45;&gt;AppModule</title>
<path fill="none" stroke="black" d="M620,-122.02C620,-139.37 620,-163 620,-163 620,-163 957,-163 957,-163"/>
<polygon fill="black" stroke="black" points="957,-166.5 967,-163 957,-159.5 957,-166.5"/>
</g>
<!-- RegistrationPageComponent -->
<g id="node9" class="node">
<title>RegistrationPageComponent</title>
<polygon fill="#ffffb3" stroke="black" points="513.48,-122 336.52,-122 336.52,-86 513.48,-86 513.48,-122"/>
<text text-anchor="middle" x="425" y="-99.8" font-family="Times,serif" font-size="14.00">RegistrationPageComponent</text>
</g>
<!-- RegistrationPageComponent&#45;&gt;AppModule -->
<g id="edge9" class="edge">
<title>RegistrationPageComponent&#45;&gt;AppModule</title>
<path fill="none" stroke="black" d="M425,-122.11C425,-141.34 425,-169 425,-169 425,-169 957,-169 957,-169"/>
<polygon fill="black" stroke="black" points="957,-172.5 967,-169 957,-165.5 957,-172.5"/>
</g>
<!-- SelectPageComponent -->
<g id="node10" class="node">
<title>SelectPageComponent</title>
<polygon fill="#ffffb3" stroke="black" points="318.25,-122 175.75,-122 175.75,-86 318.25,-86 318.25,-122"/>
<text text-anchor="middle" x="247" y="-99.8" font-family="Times,serif" font-size="14.00">SelectPageComponent</text>
</g>
<!-- SelectPageComponent&#45;&gt;AppModule -->
<g id="edge10" class="edge">
<title>SelectPageComponent&#45;&gt;AppModule</title>
<path fill="none" stroke="black" d="M247,-122.28C247,-143.32 247,-175 247,-175 247,-175 957.22,-175 957.22,-175"/>
<polygon fill="black" stroke="black" points="957.22,-178.5 967.22,-175 957.22,-171.5 957.22,-178.5"/>
</g>
<!-- AppComponent  -->
<g id="node13" class="node">
<title>AppComponent </title>
<polygon fill="#80b1d3" stroke="black" points="1063.44,-252 954.56,-252 954.56,-216 1063.44,-216 1063.44,-252"/>
<text text-anchor="middle" x="1009" y="-229.8" font-family="Times,serif" font-size="14.00">AppComponent </text>
</g>
<!-- AppModule&#45;&gt;AppComponent  -->
<g id="edge12" class="edge">
<title>AppModule&#45;&gt;AppComponent </title>
<path fill="none" stroke="black" stroke-dasharray="1,5" d="M1009,-187.11C1009,-187.11 1009,-205.99 1009,-205.99"/>
<polygon fill="black" stroke="black" points="1005.5,-205.99 1009,-215.99 1012.5,-205.99 1005.5,-205.99"/>
</g>
<!-- AppRoutingModule -->
<g id="node12" class="node">
<title>AppRoutingModule</title>
<polygon fill="#8dd3c7" stroke="black" points="152.27,-122 149.27,-126 128.27,-126 125.27,-122 23.73,-122 23.73,-86 152.27,-86 152.27,-122"/>
<text text-anchor="middle" x="88" y="-99.8" font-family="Times,serif" font-size="14.00">AppRoutingModule</text>
</g>
<!-- AppRoutingModule&#45;&gt;AppModule -->
<g id="edge11" class="edge">
<title>AppRoutingModule&#45;&gt;AppModule</title>
<path fill="none" stroke="black" d="M88,-122.25C88,-145.02 88,-181 88,-181 88,-181 957.34,-181 957.34,-181"/>
<polygon fill="black" stroke="black" points="957.34,-184.5 967.34,-181 957.34,-177.5 957.34,-184.5"/>
</g>
</g>
</svg>
